<svg xmlns="http://www.w3.org/2000/svg" xmlns:xlink="http://www.w3.org/1999/xlink" width="343" zoomAndPan="magnify" viewBox="0 0 257.25 60.75" height="81" preserveAspectRatio="xMidYMid meet" version="1.0"><defs><g/></defs><g fill="#000000" fill-opacity="1"><g transform="translate(0.0945576, 48.410612)"><g><path d="M 26.410156 -24.277344 L 8.226562 -24.277344 C 5.078125 -24.277344 2.132812 -23.972656 2.132812 -19.707031 L 2.132812 -4.570312 C 2.132812 -0.304688 5.078125 0 8.226562 0 L 20.367188 0 L 20.367188 2.386719 C 20.367188 3.808594 19.503906 3.859375 18.132812 3.859375 L 2.132812 3.859375 L 2.132812 9.597656 L 20.316406 9.597656 C 23.464844 9.597656 26.410156 9.292969 26.410156 5.027344 Z M 8.175781 -17.066406 C 8.175781 -18.488281 9.039062 -18.539062 10.410156 -18.539062 L 20.367188 -18.539062 L 20.367188 -5.738281 L 10.410156 -5.738281 C 9.039062 -5.738281 8.175781 -5.789062 8.175781 -7.210938 Z M 8.175781 -17.066406 "/></g></g></g><g fill="#000000" fill-opacity="1"><g transform="translate(28.890412, 48.410612)"><g><path d="M 8.175781 -7.820312 C 8.175781 -9.242188 9.039062 -9.292969 10.410156 -9.292969 L 20.316406 -9.292969 L 20.316406 -5.738281 L 10.410156 -5.738281 C 9.039062 -5.738281 8.175781 -5.789062 8.175781 -7.210938 Z M 26.410156 -19.707031 C 26.410156 -23.972656 23.464844 -24.277344 20.316406 -24.277344 L 2.132812 -24.277344 L 2.132812 -18.539062 L 18.082031 -18.539062 C 19.453125 -18.539062 20.316406 -18.488281 20.316406 -17.066406 L 20.316406 -15.035156 L 8.226562 -15.035156 C 5.078125 -15.035156 2.132812 -14.730469 2.132812 -10.460938 L 2.132812 -4.570312 C 2.132812 -0.304688 5.078125 0 8.226562 0 L 26.410156 0 Z M 26.410156 -19.707031 "/></g></g></g><g fill="#000000" fill-opacity="1"><g transform="translate(57.432331, 48.410612)"><g><path d="M 26.410156 0 L 26.410156 -33.875 L 20.367188 -33.875 L 20.367188 -24.277344 L 8.226562 -24.277344 C 5.078125 -24.277344 2.132812 -23.972656 2.132812 -19.707031 L 2.132812 -4.570312 C 2.132812 -0.304688 5.078125 0 8.226562 0 Z M 8.175781 -17.066406 C 8.175781 -18.488281 9.039062 -18.539062 10.410156 -18.539062 L 20.367188 -18.539062 L 20.367188 -5.738281 L 10.410156 -5.738281 C 9.039062 -5.738281 8.175781 -5.789062 8.175781 -7.210938 Z M 8.175781 -17.066406 "/></g></g></g><g fill="#000000" fill-opacity="1"><g transform="translate(86.228185, 48.410612)"><g><path d="M 26.410156 -24.277344 L 8.226562 -24.277344 C 5.078125 -24.277344 2.132812 -23.972656 2.132812 -19.707031 L 2.132812 -4.570312 C 2.132812 -0.304688 5.078125 0 8.226562 0 L 20.367188 0 L 20.367188 2.386719 C 20.367188 3.808594 19.503906 3.859375 18.132812 3.859375 L 2.132812 3.859375 L 2.132812 9.597656 L 20.316406 9.597656 C 23.464844 9.597656 26.410156 9.292969 26.410156 5.027344 Z M 8.175781 -17.066406 C 8.175781 -18.488281 9.039062 -18.539062 10.410156 -18.539062 L 20.367188 -18.539062 L 20.367188 -5.738281 L 10.410156 -5.738281 C 9.039062 -5.738281 8.175781 -5.789062 8.175781 -7.210938 Z M 8.175781 -17.066406 "/></g></g></g><g fill="#000000" fill-opacity="1"><g transform="translate(115.02404, 48.410612)"><g><path d="M 2.132812 -4.570312 C 2.132812 -0.304688 5.078125 0 8.226562 0 L 26.410156 0 L 26.410156 -5.738281 L 10.410156 -5.738281 C 9.039062 -5.738281 8.175781 -5.789062 8.175781 -7.210938 L 8.175781 -9.292969 L 26.410156 -9.292969 L 26.410156 -19.707031 C 26.410156 -23.972656 23.464844 -24.277344 20.316406 -24.277344 L 8.226562 -24.277344 C 5.078125 -24.277344 2.132812 -23.972656 2.132812 -19.707031 Z M 8.175781 -17.066406 C 8.175781 -18.488281 9.039062 -18.539062 10.410156 -18.539062 L 18.132812 -18.539062 C 19.503906 -18.539062 20.367188 -18.488281 20.367188 -17.066406 L 20.367188 -15.035156 L 8.175781 -15.035156 Z M 8.175781 -17.066406 "/></g></g></g><g fill="#000000" fill-opacity="1"><g transform="translate(143.565959, 48.410612)"><g><path d="M 14.527344 -18.539062 L 14.527344 -24.277344 L 8.429688 -24.277344 L 8.429688 -28.085938 L 2.386719 -28.085938 L 2.386719 0 L 8.429688 0 L 8.429688 -18.539062 Z M 14.527344 -18.539062 "/></g></g></g><g fill="#000000" fill-opacity="1"><g transform="translate(159.106575, 48.410612)"><g/></g></g><g fill="#000000" fill-opacity="1"><g transform="translate(169.924069, 48.410612)"><g><path d="M 20.621094 0 L 26.664062 0 L 26.664062 -19.707031 C 26.664062 -23.972656 23.71875 -24.277344 20.570312 -24.277344 L 8.429688 -24.277344 L 8.429688 -33.875 L 2.386719 -33.875 L 2.386719 0 L 8.429688 0 L 8.429688 -18.539062 L 18.386719 -18.539062 C 19.757812 -18.539062 20.621094 -18.488281 20.621094 -17.066406 Z M 20.621094 0 "/></g></g></g><g fill="#000000" fill-opacity="1"><g transform="translate(198.719913, 48.410612)"><g><path d="M 8.175781 -24.277344 L 2.132812 -24.277344 L 2.132812 -4.570312 C 2.132812 -0.304688 5.078125 0 8.226562 0 L 26.410156 0 L 26.410156 -24.277344 L 20.367188 -24.277344 L 20.367188 -5.738281 L 10.410156 -5.738281 C 9.039062 -5.738281 8.175781 -5.789062 8.175781 -7.210938 Z M 8.175781 -24.277344 "/></g></g></g><g fill="#000000" fill-opacity="1"><g transform="translate(227.515777, 48.410612)"><g><path d="M 20.570312 0 C 23.71875 0 26.664062 -0.304688 26.664062 -4.570312 L 26.664062 -19.707031 C 26.664062 -23.972656 23.71875 -24.277344 20.570312 -24.277344 L 8.429688 -24.277344 L 8.429688 -33.875 L 2.386719 -33.875 L 2.386719 0 Z M 20.621094 -7.210938 C 20.621094 -5.789062 19.757812 -5.738281 18.386719 -5.738281 L 8.429688 -5.738281 L 8.429688 -18.539062 L 18.386719 -18.539062 C 19.757812 -18.539062 20.621094 -18.488281 20.621094 -17.066406 Z M 20.621094 -7.210938 "/></g></g></g></svg>